# xmcd
#
# Track frame offsets:
#	150
#	15212
#	28999
#	46007
#	62301
#	75477
#	92072
#	106825
#	121243
#	134591
#	151781
#	169501
#
# Disc length: 2539 seconds
#
# Revision: 1
# Processed by: cddbd v1.5.2PL0 Copyright (c) Steve Scherf et al.
# Submitted via: audiograbber 1.83.01
#
DISCID=7e09e90c
DTITLE=Lauren Alaina - Road Less Traveled
DYEAR=2017
DGENRE=Country
TTITLE0=Doin' Fine
TTITLE1=My Kinda People
TTITLE2=Three
TTITLE3=Road Less Traveled
TTITLE4=Queen Of Hearts
TTITLE5=Think Outside The Boy
TTITLE6=Painting Pillows
TTITLE7=Next Boyfriend
TTITLE8=Crashin' The Boys' Club
TTITLE9=Same Day Different Bottle
TTITLE10=Holding The Other
TTITLE11=Pretty
EXTD=when I grabbed this CD song 2 is title wrong it should be My kinda people 
EXTD=instead of My kind people
EXTT0=
EXTT1=
EXTT2=
EXTT3=
EXTT4=
EXTT5=
EXTT6=
EXTT7=
EXTT8=
EXTT9=
EXTT10=
EXTT11=
PLAYORDER=
